<svg width="40" height="41" viewBox="0 0 40 41" fill="none" xmlns="http://www.w3.org/2000/svg">
<g id="Icon">
<path id="Vector" d="M37.6 3.30024H23.2C22.5778 3.30024 22.0222 3.52246 21.5333 3.96691C21.0444 4.41135 20.8 4.98913 20.8 5.70024V14.3669L11.4667 16.9002H2.66667C1.95556 16.9002 1.33333 17.1669 0.8 17.7002C0.266667 18.2336 0 18.8558 0 19.5669V25.1669C0 25.878 0.266667 26.478 0.8 26.9669C1.33333 27.4558 1.95556 27.7002 2.66667 27.7002H3.86667L4.8 35.4336C4.97778 36.4114 5.51111 37.078 6.4 37.4336C6.84444 37.6114 7.33333 37.678 7.86667 37.6336C8.4 37.5891 8.84445 37.4336 9.2 37.1669C10 36.5447 10.3111 35.7002 10.1333 34.6336L9.2 27.7002H11.4667L31.0667 33.3002C31.3333 33.3002 31.5778 33.2336 31.8 33.1002C32.0222 32.9669 32.1333 32.7669 32.1333 32.5002V17.4336H37.6C38.3111 17.4336 38.8889 17.1891 39.3333 16.7002C39.7778 16.2114 40 15.6558 40 15.0336V5.70024C40 4.98913 39.7778 4.41135 39.3333 3.96691C38.8889 3.52246 38.3111 3.30024 37.6 3.30024ZM1.6 25.1669V19.5669C1.6 19.3002 1.68889 19.0558 1.86667 18.8336C2.04444 18.6114 2.31111 18.5002 2.66667 18.5002H10.8V26.2336H2.66667C2.31111 26.2336 2.04444 26.1225 1.86667 25.9002C1.68889 25.678 1.6 25.4336 1.6 25.1669ZM8.66667 34.9002C8.66667 35.3447 8.51111 35.678 8.2 35.9002C7.88889 36.1225 7.51111 36.1669 7.06667 36.0336C6.62222 35.9002 6.4 35.6114 6.4 35.1669L5.46667 27.7002H7.73333L8.66667 34.9002ZM30.5333 31.4336L12.4 26.3669V18.3669L21.0667 15.8336C21.2444 16.278 21.5333 16.6558 21.9333 16.9669C22.3333 17.278 22.7556 17.4336 23.2 17.4336H25.2L26.5333 18.7669C26.7111 18.8558 26.9111 18.9002 27.1333 18.9002C27.3556 18.9002 27.5111 18.8558 27.6 18.7669L28.9333 17.4336H30.5333V31.4336ZM38.4 15.0336C38.4 15.2114 38.3333 15.3891 38.2 15.5669C38.0667 15.7447 37.8667 15.8336 37.6 15.8336H28.6667C28.4889 15.8336 28.3111 15.9225 28.1333 16.1002L27.0667 17.0336L26.1333 16.1002C25.9556 15.9225 25.7778 15.8336 25.6 15.8336H23.2C23.0222 15.8336 22.8444 15.7447 22.6667 15.5669C22.4889 15.3891 22.4 15.2114 22.4 15.0336V5.70024C22.4 5.43357 22.4889 5.23357 22.6667 5.10024C22.8444 4.96691 23.0222 4.90024 23.2 4.90024H37.6C37.8667 4.90024 38.0667 4.96691 38.2 5.10024C38.3333 5.23357 38.4 5.43357 38.4 5.70024V15.0336ZM35.0667 6.50024H25.7333C25.3778 6.50024 25.1333 6.61135 25 6.83358C24.8667 7.0558 24.8667 7.30024 25 7.56691C25.1333 7.83358 25.3778 7.96691 25.7333 7.96691H35.0667C35.4222 7.96691 35.6667 7.83358 35.8 7.56691C35.9333 7.30024 35.9333 7.0558 35.8 6.83358C35.6667 6.61135 35.4222 6.50024 35.0667 6.50024ZM35.0667 9.56691H25.7333C25.3778 9.56691 25.1333 9.70024 25 9.96691C24.8667 10.2336 24.8667 10.5002 25 10.7669C25.1333 11.0336 25.3778 11.1669 25.7333 11.1669H35.0667C35.4222 11.1669 35.6667 11.0336 35.8 10.7669C35.9333 10.5002 35.9333 10.2336 35.8 9.96691C35.6667 9.70024 35.4222 9.56691 35.0667 9.56691ZM30.4 12.6336H25.7333C25.3778 12.7225 25.1333 12.878 25 13.1002C24.8667 13.3225 24.8667 13.5669 25 13.8336C25.1333 14.1002 25.3778 14.2336 25.7333 14.2336H30.4C30.7556 14.2336 31 14.1002 31.1333 13.8336C31.2667 13.5669 31.2667 13.3225 31.1333 13.1002C31 12.878 30.7556 12.7225 30.4 12.6336Z" fill="#1E1E1E"/>
</g>
</svg>
