<svg width="136" height="139" viewBox="0 0 136 139" fill="none" xmlns="http://www.w3.org/2000/svg">
<g opacity="0.5" clip-path="url(#clip0_0_22)">
<path d="M51.9989 3.37739C39.2248 32.858 43.6837 70.5881 69.5921 97.4361C75.8161 103.887 77.4209 102.122 64.5619 100.1C58.4293 99.1356 56.9003 99.0742 52.1129 97.6834C48.5728 96.6542 46.7524 103.321 49.382 104.086C58.5111 106.74 65.9812 111.535 98.7395 118.961C101.348 119.551 103.459 118.309 104.771 116.237C110.649 106.953 97.8411 104.26 91.2567 64.5525C90.7598 61.5535 87.5278 60.2309 85.0286 61.8953C82.1284 63.8248 80.7264 67.4053 81.2324 70.795C82.4722 79.0605 84.456 86.9797 87.22 95.0675C56.2228 72.2311 46.6942 37.1059 56.9236 4.43878C58.042 0.862563 53.7726 -0.715727 51.9989 3.37739Z" fill="white"/>
</g>
<defs>
<clipPath id="clip0_0_22">
<rect width="73.9526" height="120" fill="white" transform="translate(0 49.3882) rotate(-41.9003)"/>
</clipPath>
</defs>
</svg>
