<svg width="120" height="126" viewBox="0 0 120 126" fill="none" xmlns="http://www.w3.org/2000/svg">
<g opacity="0.3" clip-path="url(#clip0_0_299)">
<path d="M29.0097 81.8067C40.4247 94.8952 59.39 99.7357 76.1807 92.4731C96.9445 83.4806 106.48 59.3569 97.5011 38.6016C90.9535 23.4753 76.3721 14.3103 60.9075 13.9062" stroke="white" stroke-width="2.1481" stroke-miterlimit="10"/>
<path d="M89.5589 41.7629C96.776 58.449 89.1084 77.8319 72.4355 85.0576C55.7494 92.2747 36.3665 84.6071 29.1408 67.9342C21.9237 51.248 29.5913 31.8652 46.2642 24.6395C62.937 17.4138 82.3199 25.0814 89.5589 41.7629Z" stroke="white" stroke-width="2.1481" stroke-miterlimit="10"/>
<path d="M43.3792 83.123C28.6622 64.2967 37.6559 25.6226 70.7164 24.1732" stroke="white" stroke-width="2.1481" stroke-miterlimit="10"/>
<path d="M78.6702 28.6749C87.7636 43.353 80.4348 78.3028 50.7364 86.2437" stroke="white" stroke-width="2.1481" stroke-miterlimit="10"/>
<path d="M73.7784 25.5809L46.6721 84.4351" stroke="white" stroke-width="2.1481" stroke-miterlimit="10"/>
<path d="M42.195 26.6648L91.4612 49.9663" stroke="white" stroke-width="2.1481" stroke-miterlimit="10"/>
<path d="M26.8769 59.5918L76.1345 82.9066" stroke="white" stroke-width="2.1481" stroke-miterlimit="10"/>
<path d="M29.3894 40.7073L88.731 68.9552" stroke="white" stroke-width="2.1481" stroke-miterlimit="10"/>
<path d="M38.601 104.649L72.4517 109.333C72.4517 109.333 69.6107 97.7971 56.5826 95.8585C46.1045 94.2831 38.601 104.649 38.601 104.649Z" stroke="white" stroke-width="2.1481" stroke-miterlimit="10"/>
</g>
<defs>
<clipPath id="clip0_0_299">
<rect width="78.1369" height="98.7741" fill="white" transform="translate(65.6914 125.35) rotate(-147.218)"/>
</clipPath>
</defs>
</svg>
