<svg width="53" height="84" viewBox="0 0 53 84" fill="none" xmlns="http://www.w3.org/2000/svg">
<g clip-path="url(#clip0_0_310)">
<path d="M3.76016 57.3409L8.93305 77.2449L26.8248 67.1191" stroke="white" stroke-opacity="0.3" stroke-width="1.4765" stroke-miterlimit="10" stroke-linecap="round"/>
<path d="M8.93299 77.2449L15.8251 73.3465L6.94209 69.5791L8.93299 77.2449Z" stroke="white" stroke-opacity="0.3" stroke-width="1.4765" stroke-miterlimit="10" stroke-linecap="round"/>
<path d="M21.0673 64.6714C16.6618 65.016 12.3468 63.1889 9.53402 59.7905C7.30142 61.0588 4.41447 59.8339 3.77656 57.3428C5.90087 52.3467 26.6396 3.40879 26.6396 3.40879L33.1262 4.06034L44.7068 8.96353L49.7062 13.1706C49.7062 13.1706 28.9694 62.0921 26.8431 67.1046C24.5941 68.3709 21.7052 67.1625 21.0673 64.6714Z" stroke="white" stroke-opacity="0.3" stroke-width="1.4765" stroke-miterlimit="10" stroke-linecap="round"/>
<path d="M44.1026 9.14174L21.0672 64.6713" stroke="white" stroke-opacity="0.3" stroke-width="1.4765" stroke-miterlimit="10" stroke-linecap="round"/>
<path d="M9.1133 60.107L33.1097 4.05822" stroke="white" stroke-opacity="0.3" stroke-width="1.4765" stroke-miterlimit="10" stroke-linecap="round"/>
</g>
<defs>
<clipPath id="clip0_0_310">
<rect width="43.1293" height="78.6651" fill="white" transform="translate(42.8301 83.1914) rotate(-173.246)"/>
</clipPath>
</defs>
</svg>
